# xmcd
# Track frame offsets:
# 150
# 9525
# 26187
# 47512
# 62050
# 85325
# 97925
# 111250
# 127425
# 141125
# 160700
# 175237
# 192087
# 211312
# 228300
#
# Disc length: 3266 seconds
# Revision: 0
# Processed by: cddbd v1.5PL3 Copyright (c) Steve Scherf et al.
# Submitted via: VisiTrax 2.9.9.209 - For more info visit www.synapsa.com
#
DISCID=cb0cc00f
DTITLE=Various Artist - Doesn't Everyone Want a GOLDEN GUITAR
DYEAR=1900
DGENRE=
TTITLE0=COLIN WATSON - DOESN'T EVERYBODY WANT A GOLDEN GUITAR THEME
TTITLE1=HIRED HANDS - BIG TIME COUNTRY STAR
TTITLE2=JANE SAUNDERS - LIFE IN A SMALL TOWN
TTITLE3=THE BUSHWACKERS - WOOLLOOMOOLOO LAIR
TTITLE4=WAYNE LAW - DON'T LET HIS DREAMING DIE
TTITLE5=ANGELA HAYDEN - YODELLING COWGIRL
TTITLE6=COLIN BUCHANAN - SILVER BULLET
TTITLE7=GINA JEFFREYS AND TANIA MAREE KERNAGHAN - MEN
TTITLE8=BECCY COLE - TAKE ME HOME THE LONG WAY
TTITLE9=SHOT TO PIECES - AIN'T LIFE WONDERFUL
TTITLE10=LEE KERNAGHAN - LEAVE HIM IN THE LONGYARD
TTITLE11=REG LINDSAY - MURRUMBIDGEE MAN
TTITLE12=GRAEME CONNORS - SONGS FROM THE HOMELAND
TTITLE13=JACKIE BRISTOW - MY BLUE GUITAR
TTITLE14=HIRED HANDS - BIG TIME COUNTRY STAR
EXTD=
EXTT0=
EXTT1=
EXTT2=
EXTT3=
EXTT4=
EXTT5=
EXTT6=
EXTT7=
EXTT8=
EXTT9=
EXTT10=
EXTT11=
EXTT12=
EXTT13=
EXTT14=
PLAYORDER=
